<?xml version="1.0" encoding="UTF-8"?>
<!-- Generator: Adobe Illustrator 21.1.0, SVG Export Plug-In . SVG Version: 6.00 Build 0)  -->
<svg version="1.1" id="Layer_1" xmlns="http://www.w3.org/2000/svg" xmlns:xlink="http://www.w3.org/1999/xlink" x="0px" y="0px" viewBox="0 0 786.2 208" style="enable-background:new 0 0 786.2 208;" xml:space="preserve">
<style type="text/css">
	.st0{fill:#1D1D1B;}
	.st1{fill:url(#SVGID_1_);}
</style>
<path class="st0" d="M436.8,0c-1.7,2.1-3.5,4.3-5.2,6.4c-0.1,0.2-0.6,0.3-0.8,0.2c-0.6-0.2-1.1-0.5-1.8-0.8c1.4-2,2.7-3.9,4-5.8  C434.2,0,435.5,0,436.8,0z M267.9,20.9c0,13.6,0,27.1,0,40.6c1.2,0,2.2,0,3.2,0c0-15.9,0-31.7,0-47.6c-0.6,0-1.1,0.1-1.5,0  c-1.3-0.2-2,0.4-2.6,1.5c-5,8.7-10.1,17.4-15.2,26.1c-1.2,2.1-2.5,4.3-3.8,6.6c-0.5-0.8-0.8-1.4-1.2-2  c-6.1-10.4-12.1-20.8-18.2-31.2c-0.2-0.4-0.6-0.9-0.9-0.9c-1-0.1-2,0-3.1,0c0,7.9,0,25.2,0,26c0,6.8,0,13.6,0,20.4  c0,0.4,0,0.8,0,1.2c1.2,0,2.2,0,3.3,0c0-0.6,0-1,0-1.5c0-6.6,0-13.3,0-19.9c0-0.3,0-4.4,0-5c-0.1-4.4,0-8.8,0-13.2  c0-0.3,0.1-0.6,0.1-1.3c0.5,0.8,0.8,1.2,1.1,1.7c5.7,9.8,11.4,19.6,17.2,29.4c0.7,1.3,2.5,1.3,3.2,0c4.2-7.1,8.3-14.2,12.5-21.3  c1.9-3.2,3.7-6.3,5.6-9.5C267.7,20.9,267.8,20.9,267.9,20.9z M459.2,21c0.5,0.3,0.7,0.7,0.9,1c5.8,9.9,11.5,19.7,17.3,29.6  c0.8,1.4,2.5,1.5,3.3,0c5.7-9.8,11.5-19.7,17.2-29.5c0.3-0.4,0.5-0.8,0.8-1.3c0.1,0,0.2,0,0.3,0.1c0,13.6,0,27.1,0,40.7  c1.2,0,2.2,0,3.2,0c0-15.9,0-31.7,0-47.6c-0.6,0-1.1,0.1-1.6,0c-1.2-0.2-1.8,0.3-2.4,1.3c-3.6,6.3-7.2,12.5-10.9,18.8  c-2.7,4.6-5.4,9.2-8.2,14c-0.3-0.5-0.6-0.8-0.8-1.2c-1.9-3.3-3.9-6.6-5.8-9.9c-4.3-7.4-8.6-14.7-12.9-22.1c-0.2-0.4-0.6-0.8-1-0.9  c-0.9-0.1-1.9,0-2.8,0c0,16,0,31.8,0,47.6c1.1,0,2.1,0,3.3,0C459.2,48,459.2,34.5,459.2,21z M474.3,190.7c-0.2-0.3-0.5-0.5-0.7-0.8  c-10.5-13.2-21.1-26.4-31.5-39.6c-1.1-1.3-2.2-1.3-3.5-1.1c0,15.9,0,31.7,0,47.5c1.1,0,2.1,0,3.3,0c0-13.6,0-27.2,0-40.7  c0.1-0.1,0.2-0.1,0.3-0.2c0.2,0.3,0.3,0.5,0.5,0.8c3,3.7,5.9,7.4,8.9,11.2c7.5,9.4,15.1,18.9,22.6,28.3c0.2,0.3,0.6,0.7,1,0.7  c0.9,0.1,1.7,0,2.6,0c0-16,0-31.8,0-47.6c-1.1,0-2.1,0-3.3,0c0,13.9,0,27.7,0,41.5C474.5,190.7,474.4,190.7,474.3,190.7z   M429.4,123.3c-0.3-0.3-0.6-0.6-0.8-1c-10.5-13.1-21-26.2-31.4-39.4c-1.1-1.4-2.2-1.3-3.5-1.2c0,15.9,0,31.7,0,47.5  c1.1,0,2.1,0,3.3,0c0-13.6,0-27.2,0-40.7c2.5,2.7,4.7,5.4,6.8,8.2c8.5,10.6,17,21.3,25.5,31.9c0.3,0.3,0.6,0.7,1,0.7  c0.9,0.1,1.7,0,2.7,0c0-15.9,0-31.7,0-47.6c-1.1,0-2.2,0-3.3,0c0,13.9,0,27.7,0,41.4C429.6,123.3,429.5,123.3,429.4,123.3z   M647.8,54.4c7.3-8.7,8.1-20.5,2.1-30.1c-6.7-10.8-19.9-13.8-30.1-7c-11,7.4-13.9,23.4-6.3,34.7c5.8,8.7,16.1,12.2,25.4,8.6  c2.1-0.8,4.1-2.1,6.3-3.2c0.9,1.1,2,2.4,3,3.6c0.2,0.3,0.6,0.6,0.9,0.6c0.9,0.1,1.9,0,3.1,0c-1.8-2.2-3.5-4.2-5.2-6.3  C647.3,55,647.5,54.7,647.8,54.4z M634.8,58.6c-8.1,1.4-15.6-2.5-19.6-10.1c-4.9-9.4-2.7-21.5,5.2-27.8c7.6-6,17.8-5.2,24.2,2.1  c7.1,8,7.6,20.1,1.2,28.6c-0.3,0.4-0.6,0.8-1.1,1.3c-1-1.3-2.1-2.4-2.9-3.6c-0.7-1-1.6-1.5-2.8-1.3c-0.5,0.1-1,0-1.8,0  c2,2.4,3.7,4.6,5.6,6.8C640.5,56.8,637.8,58.1,634.8,58.6z M353.6,196.7c1.1,0,2.2,0,3.3,0c0-6,0-11.9,0-17.9c0.5,0,0.9,0,1.3,0  c4.3,0,8.6,0,13,0c0.9,0,1.4,0.3,1.8,1c3.4,5.4,6.9,10.8,10.3,16.1c0.2,0.3,0.6,0.8,0.9,0.8c1.1,0.1,2.3,0,3.6,0  c-4-6.2-7.9-12.3-11.8-18.4c0.4-0.1,0.7-0.2,0.9-0.3c2.2-0.5,4.1-1.5,5.7-3.1c3.6-3.6,4.9-8,4.4-13c-0.7-6.7-6.5-12.6-13.2-12.8  c-6.7-0.2-13.4,0-20.3,0C353.6,165.1,353.6,180.9,353.6,196.7z M356.9,153.4c0-0.9,0.2-1.3,1.2-1.2c5.1,0,10.2,0,15.2,0  c3.4,0,5.9,1.7,8,4.3c4.2,5.3,3.1,13.6-2.2,17.5c-1.7,1.2-3.6,1.8-5.6,1.8c-5.1,0-10.2,0-15.4,0c-1,0-1.2-0.3-1.2-1.2  c0-3.5,0-7,0-10.6C356.9,160.4,356.9,156.9,356.9,153.4z M362.1,130c2.3-0.5,4.7-0.7,7-1.5c9.4-3.4,15.4-12.8,15.3-23  c0-5.9-2-11.3-5.7-15.9c-7.3-9.2-19.9-10.8-29.3-3.7c-8.8,6.6-12,19-7.6,29.7c3.6,8.7,11.5,14.2,20.3,14.2  C362,129.8,362.1,129.9,362.1,130z M347.1,118.6c-6-8.3-5.2-20.4,1.6-28c6.9-7.6,17.5-8.2,25.1-1.4c10.4,9.2,9,27.3-2.6,34.8  c-2.8,1.8-5.6,2.6-9.2,2.6C355.6,126.5,350.8,123.6,347.1,118.6z M707.5,157.9c-3.2-5.5-8.2-8.2-14.4-9c-6.9-0.8-13,1.1-17.9,6.1  c-8.4,8.7-9.5,21.9-2.8,32c8,12,23.4,13.5,33,3.4c0.3-0.3,0.6-0.5,1.1-1c0,2.6,0,4.9,0,7.2c1.1,0,2,0,2.9,0c0-7.7,0-15.3,0-23.1  c-4.4,0-8.8,0-13.1,0c-0.2,0-0.5,0.4-0.6,0.6c-0.1,0.7,0,1.4,0,2.2c3.7,0,7.2,0,10.8,0c0,1.9-0.2,3.7,0,5.5c0.4,3.1-0.9,5.1-3.1,7  c-6.6,5.8-15,6.8-22,2.4c-8.1-5-11.8-15.4-8.9-25.2c2.3-8,9.3-14.8,18.7-14.2c6,0.4,10.8,2.7,13.8,8.1c0.1,0.3,0.3,0.5,0.5,0.8  c0.9-0.5,1.7-1,2.7-1.6C707.9,158.7,707.7,158.3,707.5,157.9z M402.2,14.1c-1.1,0-2.1,0-3.3,0c0,0.5,0,1,0,1.5c0,6.3,0,12.6,0,19  c0,1-0.3,1.4-1.3,1.3c-9.2,0-18.4,0-27.6,0c-1.1,0-1.3-0.3-1.3-1.4c0-6.3,0-12.6,0-19c0-0.5,0-0.9,0-1.4c-1.2,0-2.3,0-3.3,0  c0,15.9,0,31.7,0,47.5c1.1,0,2.2,0,3.3,0c0-7.6,0-15.1,0-22.6c10.1,0,20.1,0,30.2,0c0,7.6,0,15.1,0,22.6c1.1,0,2.2,0,3.2,0  C402.2,45.7,402.2,29.9,402.2,14.1z M717.4,57.8c0-6,0-12,0-18c0-0.9,0.5-1,1.2-1c6.9,0,13.8,0,20.6,0c2.7,0,2.7,0,2.4-2.7  c0-0.1-0.1-0.1-0.2-0.3c-7.9,0-15.8,0-23.9,0c0-0.6,0-1,0-1.4c0-5.2,0-10.5,0-15.7c0-1.6,0-1.6,1.5-1.6c8.2,0,16.5,0,24.7,0  c0.5,0,0.9,0,1.4,0c0-1.1,0-2,0-3c-10.4,0-20.7,0-31,0c0,15.9,0,31.7,0,47.5c10.5,0,21,0,31.5,0c0-1,0-1.9,0-3c-9.4,0-18.7,0-28.1,0  C717.5,58.3,717.4,58,717.4,57.8z M751.1,196.7c0-1,0-2,0-3c-9.4,0-18.7,0-28.1,0c0-6.6,0-13.1,0-19.8c8.1,0,16,0,24.1,0  c0-1,0-1.9,0-3c-8.1,0-16,0-24.1,0c0-6.3,0-12.5,0-18.8c9.3,0,18.4,0,27.6,0c0-1.1,0-2,0-2.9c-10.4,0-20.7,0-31,0  c0,15.9,0,31.7,0,47.5C730.2,196.7,740.7,196.7,751.1,196.7z M400.6,192.9c0-6,0-12,0-18c0-0.9,0.4-1,1.2-1c6.9,0,13.8,0,20.6,0  c2.7,0,2.7,0,2.4-2.7c0-0.1-0.1-0.1-0.2-0.3c-7.9,0-15.8,0-23.9,0c0-0.6,0-1,0-1.4c0-5.3,0-10.6,0-15.8c0-1.3,0.4-1.5,1.6-1.5  c8.2,0,16.5,0,24.7,0c0.5,0,0.9,0,1.4,0c0-1.1,0-2,0-3c-10.4,0-20.7,0-31,0c0,15.9,0,31.7,0,47.5c10.5,0,21,0,31.5,0c0-1,0-1.9,0-3  c-9.4,0-18.7,0-28.1,0C400.7,193.4,400.6,193.2,400.6,192.9z M418.1,34.4c0-5.3,0-10.6,0-15.8c0-1.3,0.4-1.5,1.6-1.5  c8.2,0,16.5,0,24.7,0c0.5,0,0.9,0,1.4,0c0-1.1,0-2,0-3c-10.4,0-20.7,0-31,0c0,15.9,0,31.7,0,47.5c10.5,0,21,0,31.5,0c0-1,0-1.9,0-3  c-9.4,0-18.7,0-28.1,0c0-0.4-0.1-0.6-0.1-0.8c0-6,0-12,0-18c0-0.9,0.4-1,1.2-1c6.9,0,13.8,0,20.6,0c2.7,0,2.7,0,2.4-2.7  c0-0.1-0.1-0.1-0.2-0.3c-7.9,0-15.8,0-24,0C418.1,35.2,418.1,34.8,418.1,34.4z M311.9,196.7c1.1,0,2.2,0,3.3,0c0-3,0-6,0-9  c0-2.9,0-5.9,0-8.9c0.6,0,1,0,1.5,0c5.1,0,10.2,0.1,15.3-0.1c1.9-0.1,3.8-0.5,5.5-1.3c4.8-2.4,7-6.6,7.7-11.8  c1-7.1-4.6-16.7-14.4-16.5c-5.9,0.1-11.8,0-17.6,0c-0.4,0-0.9,0-1.3,0C311.9,165.1,311.9,180.9,311.9,196.7z M315.2,153.8  c0-1.6,0-1.6,1.5-1.6c4.5,0,9,0.1,13.5,0c6-0.2,10,4.2,11.1,8.4c1.1,4.1,0.4,7.9-2.1,11.3c-1.9,2.6-4.4,3.9-7.6,3.9  c-5.2,0.1-10.3,0-15.5,0c-0.9,0-1.1-0.3-1.1-1.1c0-3.6,0-7.1,0-10.7C315.2,160.6,315.2,157.2,315.2,153.8z M273.4,178.8  c0.6,0,1,0,1.5,0c5.1,0,10.2,0.1,15.3-0.1c1.8-0.1,3.8-0.5,5.4-1.3c4.8-2.4,7.1-6.6,7.8-11.9c1-7.1-4.6-16.6-14.4-16.5  c-5.9,0.1-11.8,0-17.6,0c-0.4,0-0.9,0-1.3,0c0,15.9,0,31.8,0,47.6c1.1,0,2.1,0,3.3,0C273.4,190.8,273.4,184.8,273.4,178.8z   M273.4,154c0-2.1-0.1-1.8,1.8-1.8c4.4,0,8.9,0.1,13.3,0c6.1-0.2,10,4.2,11.1,8.4c1.1,4.1,0.4,7.9-2.1,11.3  c-1.9,2.6-4.4,3.9-7.6,3.9c-5.2,0.1-10.3,0-15.5,0c-0.9,0-1.1-0.3-1.1-1.1c0-3.6,0-7.2,0-10.8C273.4,160.6,273.4,157.3,273.4,154z   M783.3,19.1c-0.1-0.1-0.2-0.2-0.3-0.2c-7.1-5.9-15-6.4-23.3-3.4c-5.7,2.1-8.6,7.5-7.8,13.5c0.4,2.6,1.5,4.8,3.8,6.2  c1.3,0.8,2.6,1.6,4.1,2c3,0.9,6.2,1.6,9.3,2.4c3.2,0.8,6.6,1.5,9.5,3.3c1.8,1.1,3.2,2.5,3.6,4.6c1.1,4.9-0.6,8.8-5.3,10.4  c-6,2.1-12.1,1.8-17.9-0.8c-2.5-1.1-4.8-2.9-7.3-4.4c-0.4,0.6-1,1.5-1.6,2.5c1.2,0.9,2.4,1.9,3.6,2.7c6,3.9,12.6,4.9,19.6,4  c3.1-0.4,6-1.4,8.6-3.3c5.4-4,6-14.5-1.1-18.3c-1.2-0.7-2.5-1.3-3.8-1.7c-3.3-1-6.7-1.7-10.1-2.6c-2.6-0.7-5.1-1.5-7.6-2.4  c-2-0.8-3.4-2.4-3.9-4.6c-1-4.8,1.1-9.4,6-11.1c3.8-1.3,7.8-1.3,11.7-0.6c3.3,0.6,6.1,2.2,8.5,4.7c0.6-0.9,1.1-1.7,1.6-2.5  C783.4,19.2,783.4,19.1,783.3,19.1z M616.7,153.9c-6.6-6.3-18.4-6.2-24.5-2.9c-5,2.7-7,7.1-6.6,12.7c0.4,4.8,3.7,7.1,7.8,8.6  c0.1,0,0.2,0,0.2,0.1c3.4,0.9,6.8,1.7,10.2,2.6c3,0.8,5.9,1.5,8.6,3.2c5.4,3.2,4.9,11.9-0.6,14.2c-1.9,0.8-4.1,1.5-6.2,1.7  c-7.3,0.8-14-1-19.5-6.1c-0.2-0.2-0.4-0.3-0.6-0.5c-0.6,0.9-1.2,1.8-1.7,2.7c0.5,0.4,0.8,0.8,1.3,1.1c0.8,0.6,1.6,1.2,2.4,1.8  c6,3.8,12.6,4.8,19.5,3.9c3-0.4,5.9-1.4,8.4-3.2c5.6-4,6.2-14.7-1-18.5c-1.2-0.6-2.3-1.3-3.6-1.6c-3.4-1-6.8-1.7-10.2-2.7  c-2.6-0.7-5.1-1.5-7.6-2.4c-2-0.8-3.4-2.4-3.9-4.6c-1.2-4.9,1.3-9.5,6.1-11c4.2-1.4,8.5-1.3,12.8-0.3c2.9,0.7,5.3,2.2,7.4,4.4  c0.6-0.9,1.1-1.7,1.8-2.7C617.1,154.1,616.9,154,616.7,153.9z M546.8,193c6,3.8,12.6,4.8,19.5,3.9c3.1-0.4,6-1.4,8.5-3.3  c5.5-4,6.1-14.5-1-18.4c-1.2-0.6-2.4-1.3-3.7-1.7c-3.4-1-6.8-1.7-10.2-2.7c-2.6-0.7-5.1-1.5-7.6-2.5c-2-0.8-3.4-2.3-3.8-4.5  c-1-4.6,0.9-9.4,6-11.1c4.5-1.5,9-1.4,13.6-0.1c2.6,0.7,4.8,2.2,6.8,4.2c0.6-0.9,1.1-1.8,1.7-2.6c-0.2-0.2-0.3-0.3-0.4-0.4  c-7.1-6-15.2-6.5-23.5-3.4c-5.7,2.1-8.5,7.5-7.6,13.5c0.4,2.6,1.6,4.8,3.8,6.2c1.3,0.8,2.6,1.6,4.1,2c2.7,0.9,5.5,1.5,8.2,2.2  c3.6,0.9,7.2,1.5,10.4,3.5c3.5,2.1,4.7,5,3.8,9.4c-0.8,3.6-3.4,5.4-6.7,6.1c-8.6,2-16.4,0.5-23.1-5.6c-0.1-0.1-0.3-0.2-0.5-0.4  c-0.6,0.9-1.1,1.7-1.8,2.7C544.4,191.2,545.5,192.2,546.8,193z M286.2,125.5c6,3.8,12.6,4.8,19.5,3.9c3.1-0.4,6-1.4,8.5-3.3  c5.5-4,6.1-14.5-1-18.4c-1.2-0.6-2.4-1.3-3.7-1.7c-3.4-1-6.8-1.7-10.2-2.7c-2.6-0.7-5.1-1.5-7.6-2.4c-2-0.8-3.4-2.4-3.9-4.6  c-1.2-4.9,1.3-9.5,6.1-11c4.4-1.4,9-1.4,13.5-0.1c2.6,0.7,4.8,2.2,6.8,4.2c0.6-0.9,1.1-1.8,1.7-2.6c-0.2-0.2-0.3-0.3-0.4-0.4  c-6.7-6.5-18.5-6.2-24.6-2.9c-5,2.7-7,7.1-6.5,12.7c0.4,4.9,3.8,7.3,8,8.6c3.3,1,6.8,1.8,10.2,2.6c2.9,0.7,5.8,1.4,8.4,3  c2.9,1.8,4.1,4.3,3.9,7.7c-0.2,3.2-1.7,5.6-4.5,6.8c-1.9,0.8-3.9,1.4-6,1.6c-7.1,0.7-13.5-0.9-18.9-5.6c-0.3-0.3-0.7-0.6-1.1-1  c-0.6,0.9-1.1,1.7-1.8,2.8C283.7,123.7,284.9,124.7,286.2,125.5z M662.4,15.6c0,7.2-0.1,14.3,0,21.5c0,2.9,0.3,5.8,0.7,8.7  c0.9,5.2,3.1,9.7,7.5,12.9c4,3,8.6,3.5,13.5,3.3c7.4-0.4,12.6-4.1,15.6-10.8c1.7-3.8,2.3-7.9,2.3-12c0.1-7.9,0-15.8,0-23.8  c0-0.4,0-0.8-0.1-1.2c-1.2,0-2.2,0-3.3,0c0,0.5,0,1,0,1.5c0,7.4,0.1,14.8,0,22.2c0,2.7-0.3,5.4-0.8,8.1c-0.9,4.5-2.9,8.3-7,10.9  c-3,1.9-6.3,2.3-9.8,2.1c-5.7-0.2-9.9-2.8-12.6-7.8c-2-3.7-2.6-7.7-2.7-11.8c-0.1-8-0.1-15.9-0.1-23.9c0-0.5,0-0.9,0-1.4  c-1.2,0-2.2,0-3.3,0C662.4,14.7,662.4,15.1,662.4,15.6z M221.7,196.8c1,0.1,1.5-0.3,1.8-1.2c1.8-4.5,3.8-8.9,5.6-13.4  c0.4-0.9,0.8-1.3,1.8-1.2c6.7,0,13.4,0,20.2,0c1,0,1.5,0.3,1.8,1.2c1.9,4.5,3.8,9.1,5.7,13.6c0.2,0.4,0.6,0.9,1,0.9  c0.9,0.1,1.9,0,3,0c-0.5-1.2-0.9-2.2-1.4-3.2c-6.1-14.4-12.2-28.9-18.3-43.3c-0.2-0.4-0.4-1-0.7-1c-0.8-0.1-1.7-0.2-2.5,0  c-0.4,0.1-0.6,0.9-0.8,1.4c-4.6,10.8-9.2,21.5-13.7,32.3c-2,4.6-3.9,9.2-5.9,14C220.3,196.8,221,196.7,221.7,196.8z M230.5,178.2  c3.5-8.3,7-16.5,10.6-25c3.5,8.4,6.9,16.6,10.4,25C244.4,178.2,237.6,178.2,230.5,178.2z M512.3,61.7c0.9,0.1,1.2-0.3,1.6-1.1  c1.9-4.5,3.8-9,5.7-13.6c0.4-0.9,0.8-1.2,1.8-1.2c6.7,0,13.4,0,20.2,0c1.1,0,1.5,0.4,1.9,1.3c1.9,4.5,3.8,9.1,5.7,13.6  c0.2,0.4,0.6,0.8,0.9,0.9c0.9,0.1,1.9,0,3,0c-6.7-16-13.4-31.8-20.1-47.6c-2.9-0.2-2.9-0.2-4,2.3c-5.3,12.4-10.5,24.8-15.8,37.1  c-1.1,2.7-2.3,5.3-3.4,8.2C510.7,61.7,511.5,61.6,512.3,61.7z M541.9,43.1c-7,0-13.9,0-21,0c3.5-8.3,7-16.5,10.6-24.9  C535,26.6,538.4,34.7,541.9,43.1z M281.1,61.7c0.9,0.1,1.4-0.2,1.8-1.1c1.8-4.5,3.8-9,5.7-13.5c0.4-0.8,0.8-1.2,1.7-1.2  c6.8,0,13.5,0,20.3,0c1,0,1.4,0.3,1.8,1.2c1.9,4.6,3.8,9.1,5.8,13.7c0.2,0.4,0.5,0.9,0.8,0.9c1,0.1,2,0,3.2,0  c-0.2-0.6-0.4-0.9-0.5-1.3c-1.8-4.3-3.6-8.5-5.4-12.8c-4.6-10.9-9.2-21.8-13.8-32.6c-0.1-0.3-0.3-0.8-0.5-0.9  c-0.8-0.1-1.7-0.2-2.5,0c-0.3,0.1-0.6,0.7-0.8,1.2c-5.5,12.8-10.9,25.6-16.4,38.4c-1.1,2.6-2.2,5.2-3.4,8  C279.6,61.7,280.3,61.6,281.1,61.7z M310.8,43.1c-7.1,0-13.9,0-21,0c3.5-8.3,7-16.5,10.6-25C303.9,26.6,307.3,34.8,310.8,43.1z   M641.6,151.4c-5.7,13.5-11.5,27-17.2,40.5c-0.7,1.6-1.3,3.1-2,4.8c0.9,0,1.6-0.1,2.3,0c1,0.1,1.5-0.3,1.8-1.2  c1.8-4.5,3.8-9,5.6-13.5c0.4-0.9,0.9-1.1,1.8-1.1c6.7,0,13.4,0,20.2,0c1,0,1.5,0.3,1.9,1.2c1.9,4.5,3.8,9.1,5.7,13.6  c0.2,0.4,0.5,0.9,0.8,1c1,0.1,2,0,3.1,0c-6.8-16-13.4-31.8-20.1-47.6C642.7,149,642.7,149,641.6,151.4z M654.5,178.2  c-7.1,0-13.9,0-21,0c3.5-8.3,7-16.5,10.6-25C647.6,161.7,651,169.9,654.5,178.2z M240.6,123.7c-2.9-6.8-5.7-13.6-8.5-20.4  c-2.9-6.9-5.7-13.8-8.7-20.6c-0.2-0.4-0.5-0.9-0.9-0.9c-1-0.1-1.9,0-3,0c0.2,0.5,0.3,0.8,0.4,1.2c6.4,15.1,12.8,30.2,19.2,45.3  c0.6,1.4,1.4,1.1,2.4,1.2c1,0.1,1.4-0.3,1.8-1.2c5.3-12.6,10.6-25.2,16-37.8c1.2-2.8,2.4-5.6,3.6-8.6c-0.8,0-1.3,0.1-1.9,0  c-1.3-0.2-1.8,0.3-2.3,1.5c-5.6,13.5-11.2,26.9-16.8,40.3c-0.2,0.4-0.4,0.8-0.7,1.4C240.9,124.4,240.7,124.1,240.6,123.7z   M319.5,14.1c0,1,0,1.9,0,3c0.5,0,0.9,0,1.3,0c4.8,0,9.7,0,14.5,0c1.6,0,1.6,0,1.6,1.5c0,13.8,0,27.7,0,41.5c0,0.5,0,1,0,1.5  c1.2,0,2.2,0,3.3,0c0-0.6,0-1.1,0-1.6c0-13.8,0-27.7,0-41.5c0-1.2,0.3-1.5,1.5-1.5c4.9,0.1,9.8,0,14.7,0c0.4,0,0.8,0,1.2-0.1  c0-1.1,0-2,0-2.9C344.9,14.1,332.2,14.1,319.5,14.1z M550.9,14.1c0,1,0,2,0,3c0.5,0,0.9,0,1.4,0c4.8,0,9.5,0,14.3,0  c1.9,0,1.8-0.2,1.8,1.7c0,13.8,0,27.6,0,41.4c0,0.5,0,1,0,1.4c1.2,0,2.3,0,3.3,0c0-0.6,0-1.1,0-1.7c0-13.8,0-27.7,0-41.5  c0-1.1,0.3-1.4,1.4-1.4c4.9,0.1,9.8,0,14.7,0c0.4,0,0.8,0,1.3,0c0-1.1,0-2,0-3C576.3,14.1,563.6,14.1,550.9,14.1z M486.7,152.2  c4.8,0,9.6,0,14.4,0c1.7,0,1.7,0,1.7,1.7c0,13.8,0,27.6,0,41.4c0,0.5,0,1,0,1.5c1.2,0,2.2,0,3.3,0c0-0.6,0-1.1,0-1.6  c0-13.8,0-27.7,0-41.5c0-1.2,0.3-1.5,1.5-1.5c4.9,0.1,9.8,0,14.7,0c0.4,0,0.8,0,1.2-0.1c0-1.1,0-2,0-2.9c-12.8,0-25.5,0-38.2,0  c0,1,0,1.9,0,3C485.9,152.2,486.3,152.2,486.7,152.2z M531.2,196.7c1.1,0,2.1,0,3.2,0c0-15.9,0-31.7,0-47.5c-1.1,0-2.1,0-3.2,0  C531.2,165.1,531.2,180.9,531.2,196.7z M327,129.3c1.1,0,2.1,0,3.2,0c0-15.9,0-31.7,0-47.6c-1.1,0-2.1,0-3.2,0  C327,97.7,327,113.5,327,129.3z M273.6,81.8c-1.1,0-2.2,0-3.2,0c0,15.9,0,31.7,0,47.5c1.1,0,2.1,0,3.2,0  C273.6,113.4,273.6,97.6,273.6,81.8z M599.7,14.1c-1.1,0-2.2,0-3.2,0c0,15.9,0,31.7,0,47.5c1.1,0,2.1,0,3.2,0  C599.7,45.7,599.7,29.9,599.7,14.1z"/>
<linearGradient id="SVGID_1_" gradientUnits="userSpaceOnUse" x1="3.529412e-03" y1="106.024" x2="203.9971" y2="106.024">
	<stop offset="0" style="stop-color:#182389"/>
	<stop offset="1" style="stop-color:#A02566"/>
</linearGradient>
<path class="st1" d="M0,8.7C0.1,8.5,0.2,8.3,0.3,8c1.1-3.9,5.7-5.3,8.8-2.7c0.4,0.3,0.7,0.7,1,1C40.4,36.6,70.6,66.8,100.8,97  c0.4,0.4,0.6,0.9,0.9,1.4c0.2,0,0.4-0.1,0.6-0.1c0.3-0.4,0.5-0.8,0.8-1.1c29.2-29.3,58.5-58.5,87.7-87.7c1.2-1.2,2.4-2.4,3.6-3.6  c1.9-1.9,4-2.3,6.2-1.4c2.1,0.9,3.3,2.8,3.3,5.4c0,63.1,0,126.2,0,189.4c0,1,0,2,0,3c0,3.4-2.1,5.7-5.5,5.8c-0.4,0-0.9,0-1.3,0  c-63.4,0-126.7,0-190.1,0.1c-3.5,0-6-1.1-7.1-4.5C0,138.6,0,73.6,0,8.7z M193.1,31.1c-0.1,0-0.2-0.1-0.2-0.1  c-0.2,0.4-0.5,0.9-0.7,1.3c-9.2,18.5-18.4,37-27.6,55.5c-7.9,15.9-15.8,31.7-23.7,47.6c-0.4,0.7-0.4,1.2,0.2,1.8  c17.1,17,34.1,34.1,51.2,51.1c0.2,0.2,0.5,0.4,0.9,0.8C193.1,136.3,193.1,83.7,193.1,31.1z M11.1,188.9c0.1,0.1,0.2,0.1,0.4,0.2  c0.3-0.4,0.5-0.8,0.9-1.1c16.6-16.6,33.1-33.1,49.7-49.7c0.8-0.8,0.8-1.4,0.4-2.3c-9.6-18.8-19.1-37.7-28.6-56.5  C27,66.2,20.3,52.9,13.6,39.6c-0.8-1.5-1.6-3.1-2.4-4.6c-0.1,0-0.1,0.1-0.2,0.1C11.1,86.4,11.1,137.7,11.1,188.9z M102.2,113.6  c-0.5,0.5-0.8,0.8-1.1,1.1c-7.9,7.9-15.9,15.9-23.8,23.8c-0.7,0.7-0.9,1.3-0.4,2.2c7.5,14.8,15,29.6,22.4,44.3  c0.7,1.5,1.5,2.9,2.3,4.6c0.3-0.6,0.5-0.9,0.7-1.2c8.1-16.2,16.2-32.4,24.3-48.6c0.4-0.8,0.2-1.2-0.3-1.8c-7.7-7.6-15.3-15.3-23-23  C102.9,114.5,102.6,114.1,102.2,113.6z M135.1,147c-8.2,16.6-16.5,33.2-24.9,49.9c25.1,0,50,0,74.8,0  C168.4,180.4,151.8,163.7,135.1,147z M93.2,197c-8.4-16.5-16.6-32.9-24.8-48.9c-16.4,16.4-32.7,32.7-49,48.9  C43.8,197,68.4,197,93.2,197z M23.8,35.7C39.7,67,55.4,98,71,128.9c7.8-7.8,15.4-15.4,23-23C70.8,82.7,47.4,59.3,23.8,35.7z   M132.3,128.3c14.7-29.5,29.4-59,44-88.3c-22,22-44.1,44.1-66.1,66.1C117.4,113.4,124.7,120.7,132.3,128.3z"/>
</svg>